 <svg  version="1.0" xmlns="http://www.w3.org/2000/svg"  width="300.000000pt" height="214.000000pt" viewBox="0 0 300.000000 214.000000"  preserveAspectRatio="xMidYMid meet">  <g transform="translate(0.000000,214.000000) scale(0.050000,-0.050000)" fill="#5d8cea" stroke="none"> <path d="M2531 3398 c6 -10 -15 -18 -47 -18 -33 0 -92 -14 -132 -30 -39 -17 -72 -26 -72 -19 0 6 -20 -8 -44 -30 -24 -23 -55 -41 -70 -41 -14 0 -26 -9 -26 -20 0 -11 -15 -20 -33 -20 -18 0 -53 -22 -79 -50 -25 -27 -55 -50 -66 -50 -11 0 -26 -10 -34 -23 -9 -14 -5 -18 9 -9 13 8 23 5 23 -7 0 -11 -17 -21 -39 -21 -21 0 -45 -10 -53 -23 -9 -16 -5 -18 13 -6 15 9 6 -12 -18 -47 -25 -35 -52 -64 -61 -64 -8 0 -27 -31 -42 -70 -15 -38 -35 -70 -45 -70 -10 0 -13 -7 -7 -16 5 -9 -9 -48 -32 -85 -23 -38 -45 -87 -48 -109 -4 -22 -11 -58 -16 -80 -5 -22 -10 -47 -10 -56 -1 -9 -13 -10 -27 -1 -19 11 -20 7 -4 -14 12 -16 21 -47 20 -69 -1 -22 5 -56 14 -75 9 -19 9 -35 -1 -35 -13 0 -16 -197 -3 -215 2 -3 5 -12 7 -20 1 -8 9 -25 17 -37 7 -12 20 -60 27 -106 7 -47 25 -97 40 -111 14 -14 21 -32 14 -39 -7 -6 -2 -12 12 -12 13 0 19 -9 12 -19 -6 -11 7 -38 29 -60 23 -23 41 -49 41 -59 0 -27 282 -303 299 -293 8 5 29 -9 48 -31 19 -22 43 -34 54 -28 10 7 19 2 19 -10 0 -12 8 -17 18 -11 11 6 35 -4 54 -24 19 -19 38 -33 42 -30 20 16 46 1 34 -18 -10 -16 -4 -20 16 -12 17 7 43 1 56 -12 20 -18 22 -17 11 4 -12 21 -7 23 22 8 49 -24 495 -11 504 15 3 11 14 16 22 10 9 -5 49 13 90 41 41 27 82 45 92 39 9 -6 36 7 58 29 23 23 50 41 62 41 11 0 25 14 32 30 6 17 23 30 37 30 14 0 47 27 73 61 26 33 76 93 111 134 35 40 60 79 55 87 -5 7 5 19 21 25 17 7 30 25 30 42 0 16 18 63 41 103 23 40 43 99 45 130 2 32 10 58 18 58 22 0 16 506 -7 534 -11 13 -15 34 -7 45 7 12 -2 27 -20 34 -27 10 -28 16 -7 29 20 13 21 17 2 18 -14 0 -25 16 -25 36 0 20 -11 47 -24 60 -13 13 -17 24 -9 24 9 0 -3 26 -25 57 -22 32 -34 65 -26 73 8 9 4 11 -8 4 -12 -7 -34 10 -48 37 -15 27 -35 49 -45 49 -9 0 -13 8 -7 17 6 9 -25 43 -68 75 -43 32 -89 78 -102 103 -14 25 -38 45 -53 45 -36 0 -127 70 -114 87 5 7 3 9 -4 4 -6 -5 -37 3 -67 19 -30 16 -61 23 -67 16 -7 -7 -13 -2 -13 12 0 13 -11 22 -25 19 -14 -2 -56 3 -95 12 -99 24 -240 25 -240 1 -1 -13 -6 -13 -15 0 -18 25 -129 33 -114 8z m433 -210 c504 -163 777 -783 577 -1309 -344 -906 -1600 -776 -1761 183 -96 565 288 1127 784 1151 78 3 147 12 154 18 15 15 126 -5 246 -43z"/> <path d="M2331 3127 c-563 -293 -675 -1124 -214 -1584 106 -106 339 -245 405 -242 16 1 -16 19 -69 41 -754 305 -816 1387 -102 1772 65 36 110 65 99 65 -11 -1 -65 -24 -119 -52z"/> <path d="M2420 2330 l0 -630 310 0 310 0 0 60 0 60 -262 0 -262 0 7 570 7 570 -55 0 -55 0 0 -630z"/> <path d="M2625 2847 l-45 -10 0 -481 0 -480 157 7 c628 28 649 900 23 964 -49 5 -110 5 -135 0z m205 -375 c112 73 230 -15 230 -172 0 -171 -118 -257 -299 -218 l-101 21 0 287 0 287 55 7 c54 6 55 4 61 -119 l6 -125 48 32z"/> <path d="M2793 2407 c-36 -37 -13 -264 28 -277 94 -30 159 138 98 251 -20 38 -98 53 -126 26z"/> </g> </svg> 